<svg width="126" height="20" viewBox="0 0 126 20" fill="none" xmlns="http://www.w3.org/2000/svg">
<path d="M60.0898 3.82238L67.0572 2.91337V4.9248L62.8768 5.36963V6.70414L67.0572 6.20128V7.70986L62.8768 8.23205V9.45052L68.5501 8.79293V11.1718L62.8768 11.7521L61.9213 11.8294C61.3904 11.8294 60.9525 11.636 60.6074 11.2492C60.2624 10.8624 60.0898 10.3982 60.0898 9.85667V3.82238ZM70.1626 3.12612L73.4074 2.70062V6.14326L74.9999 5.9692V7.65183L73.4074 7.80656V10.8044L70.1626 11.1718V3.12612Z" fill="#9386E0"/>
<path d="M53.7992 17.7584V3.1237L57.0382 2.70062V9.20067L58.6279 9.02759V10.7007L57.0382 10.8545V17.7584H53.7992ZM42.3535 13.9122C42.3668 13.2199 42.6251 12.6815 43.1285 12.2968C43.6451 11.8994 44.3804 11.7007 45.3342 11.7007C45.6124 11.7007 46.0164 11.7456 46.5463 11.8353C46.745 10.8738 46.8907 9.68786 46.9835 8.27759C47.0762 6.8545 47.1159 5.45064 47.1027 4.06602L50.3417 3.75832C50.2224 4.54038 50.1231 5.35449 50.0436 6.20065C49.8714 7.67502 49.7058 8.88657 49.5468 9.83529C49.3879 10.7712 49.156 11.6302 48.8513 12.4122C50.0039 12.7584 51.1762 13.1558 52.3685 13.6046L50.6596 15.893L47.6193 14.5084C47.1292 14.9956 46.5794 15.3674 45.97 15.6238C45.4666 15.8289 44.9964 15.9315 44.5592 15.9315C43.8968 15.9315 43.3603 15.7328 42.9496 15.3353C42.5522 14.9379 42.3535 14.4635 42.3535 13.9122ZM44.2015 13.8353C44.2015 13.9635 44.2413 14.0661 44.3207 14.143C44.4135 14.2199 44.5393 14.2584 44.6983 14.2584C44.9367 14.2584 45.2282 14.1622 45.5726 13.9699C45.6918 13.9058 45.7912 13.8097 45.8707 13.6815L45.6124 13.5469C45.3872 13.4187 45.1553 13.3545 44.9169 13.3545C44.7049 13.3545 44.5327 13.3994 44.4002 13.4892C44.2678 13.5789 44.2015 13.6943 44.2015 13.8353Z" fill="#9386E0"/>
<path d="M41.5742 10.7061L25.7871 12.1818V10.0546L41.5742 8.25317V10.7061ZM28.8485 12.565L39.1731 11.4344V17.7584H30.8094C30.2758 17.7584 29.8156 17.5796 29.4287 17.2218C29.0419 16.8641 28.8485 16.4361 28.8485 15.9379V12.565ZM36.8521 15.1905V13.5999L31.1495 14.0598V15.3629L36.8521 15.1905Z" fill="#9386E0"/>
<path d="M20.1386 17.7586V3.12382L23.4046 2.70074V9.20079L25.0075 9.02772V10.7008L23.4046 10.8547V17.7586H20.1386ZM10 4.58537L17.5338 3.68152V14.9316H11.9836C11.436 14.9316 10.9684 14.7521 10.5811 14.3931C10.1937 14.0213 10 13.5726 10 13.047V4.58537ZM14.7287 12.3931V6.16231L12.8051 6.35462V12.547L14.7287 12.3931Z" fill="#9386E0"/>
<path d="M73.415 14.0446C73.7212 16.4747 71.9442 18.6702 69.446 18.9486C66.9477 19.2269 64.6742 17.4826 64.368 15.0526C64.0617 12.6225 65.8387 10.4269 68.337 10.1486C70.8353 9.87027 73.1088 11.6146 73.415 14.0446Z" fill="url(#paint0_linear_2414_4149)"/>
<path fill-rule="evenodd" clip-rule="evenodd" d="M68.4993 11.4772C68.5888 11.8 68.3927 12.1301 68.0613 12.2145C67.7283 12.2994 67 12.6978 66.8639 13.5355C66.8105 13.8646 66.4922 14.0872 66.1531 14.0327C65.814 13.9781 65.5824 13.6671 65.6359 13.338C65.8756 11.8619 67.1271 11.2012 67.7371 11.0458C68.0685 10.9613 68.4097 11.1545 68.4993 11.4772Z" fill="#FFC4C4"/>
<path d="M63.8947 14.6975C63.811 14.0318 64.2967 13.4304 64.9796 13.3541L72.398 12.5258C73.0809 12.4495 73.7023 12.9274 73.786 13.5931L73.9376 14.7984C74.0213 15.4641 73.5355 16.0656 72.8527 16.1419L65.4342 16.9702C64.7514 17.0464 64.13 16.5686 64.0463 15.9029L63.8947 14.6975Z" fill="url(#paint1_linear_2414_4149)"/>
<path fill-rule="evenodd" clip-rule="evenodd" d="M64.9234 14.5953C64.8816 14.2633 65.1242 13.9633 65.4653 13.9253L66.2889 13.8335C66.6301 13.7954 66.9405 14.0338 66.9823 14.3658C67.0242 14.6978 66.7815 14.9978 66.4404 15.0358L65.6168 15.1276C65.2756 15.1657 64.9652 14.9273 64.9234 14.5953Z" fill="#FFC4C4"/>
<path d="M38.1748 4.94696C38.481 7.37701 36.704 9.57259 34.2057 9.85093C31.7074 10.1293 29.4339 8.38496 29.1277 5.95492C28.8215 3.52487 30.5985 1.32929 33.0968 1.05096C35.595 0.772617 37.8685 2.51692 38.1748 4.94696Z" fill="url(#paint2_linear_2414_4149)"/>
<path fill-rule="evenodd" clip-rule="evenodd" d="M33.259 2.37959C33.3486 2.70233 33.1525 3.03243 32.8211 3.11689C32.4881 3.20174 31.7598 3.60011 31.6237 4.43785C31.5703 4.76697 31.252 4.98955 30.9129 4.935C30.5738 4.88045 30.3422 4.56942 30.3957 4.2403C30.6354 2.76423 31.8869 2.10356 32.4968 1.94813C32.8282 1.86367 33.1695 2.05685 33.259 2.37959Z" fill="#FFE9C4"/>
<path d="M28.6545 5.59989C28.5708 4.93419 29.0565 4.33272 29.7393 4.25647L37.1578 3.42813C37.8407 3.35188 38.4621 3.82973 38.5458 4.49543L38.6973 5.70078C38.781 6.36648 38.2953 6.96795 37.6125 7.0442L30.194 7.87254C29.5111 7.94879 28.8897 7.47095 28.806 6.80525L28.6545 5.59989Z" fill="url(#paint3_linear_2414_4149)"/>
<path fill-rule="evenodd" clip-rule="evenodd" d="M29.6831 5.49766C29.6413 5.16564 29.884 4.86566 30.2251 4.82763L31.0487 4.73582C31.3898 4.69779 31.7003 4.93611 31.7421 5.26813C31.7839 5.60015 31.5413 5.90013 31.2001 5.93816L30.3765 6.02997C30.0354 6.068 29.725 5.82967 29.6831 5.49766Z" fill="#FFE9C4"/>
<defs>
<linearGradient id="paint0_linear_2414_4149" x1="68.337" y1="10.1486" x2="69.319" y2="18.9627" gradientUnits="userSpaceOnUse">
<stop stop-color="#F96565"/>
<stop offset="1" stop-color="#FFA9A9"/>
</linearGradient>
<linearGradient id="paint1_linear_2414_4149" x1="68.6888" y1="12.94" x2="69.0932" y2="16.5616" gradientUnits="userSpaceOnUse">
<stop stop-color="#FF6969"/>
<stop offset="1" stop-color="#FF8989"/>
</linearGradient>
<linearGradient id="paint2_linear_2414_4149" x1="33.0968" y1="1.05096" x2="34.0788" y2="9.86507" gradientUnits="userSpaceOnUse">
<stop stop-color="#F9AC65"/>
<stop offset="1" stop-color="#FFD269"/>
</linearGradient>
<linearGradient id="paint3_linear_2414_4149" x1="33.4486" y1="3.8423" x2="33.853" y2="7.46398" gradientUnits="userSpaceOnUse">
<stop stop-color="#FFBB69"/>
<stop offset="1" stop-color="#FFD573"/>
</linearGradient>
</defs>
</svg>
