<svg width="114" height="44" viewBox="0 0 114 44" fill="none" xmlns="http://www.w3.org/2000/svg">
<rect width="100" height="44" rx="10" fill="#DDDDF7"/>
<path d="M40.9609 16.6406V18.2344C40.9609 20.125 40.9609 22.0781 40.4453 25.0469L38.6797 24.8906C39.2266 22.1094 39.2266 20.0625 39.2266 18.2344V18.0469H31.0859V16.6406H40.9609ZM42.6016 26.0312V27.4531H29.7266V26.0312H42.6016ZM55.3203 15.2656V29.4062H53.6016V15.2656H55.3203ZM50.9766 16.5V21.7969H46.1172V24.6406C48.3438 24.625 50.2656 24.5156 52.4609 24.1406L52.6172 25.5625C50.2109 25.9844 48.1016 26.0625 45.5703 26.0625H44.3359V20.4219H49.2109V17.9062H44.3203V16.5H50.9766ZM69.1797 15.2656V29.3906H67.4297V15.2656H69.1797ZM64.9609 16.7656C64.9609 20.9688 63.3359 24.5469 58.3828 26.8906L57.4766 25.5C61.1719 23.7422 62.8906 21.3516 63.1953 18.1406H58.1953V16.7656H64.9609Z" fill="#6146BB"/>
<path d="M110.961 20.2635C112.305 21.0313 112.305 22.9687 110.961 23.7365L100 30L100 14L110.961 20.2635Z" fill="#DDDDF7"/>
</svg>
