<svg width="114" height="44" viewBox="0 0 114 44" fill="none" xmlns="http://www.w3.org/2000/svg">
<rect width="100" height="44" rx="10" fill="#DDDDF7"/>
<path d="M25.8281 15.2812V25.5938H24.0938V20.4219H21.5938V19.0156H24.0938V15.2812H25.8281ZM26.1875 27.7031V29.1094H16.5625V24.6875H18.2969V27.7031H26.1875ZM19.1875 18.0938C19.1875 19.7969 20.3281 21.5469 22.5156 22.2656L21.6406 23.6562C20.0625 23.1172 18.9453 22.0469 18.3281 20.7031C17.7031 22.1953 16.5234 23.375 14.8594 23.9531L13.9688 22.5469C16.2188 21.8125 17.4219 19.9531 17.4219 18.0781V17.7031H14.4844V16.2969H22.1094V17.7031H19.1875V18.0938ZM32.1406 19.5781C32.1406 21.7656 33.0469 23.9688 35.0156 25.0312L34.0469 26.3125C32.7344 25.6172 31.8438 24.375 31.3438 22.8906C30.8438 24.4922 29.9531 25.8594 28.625 26.6406L27.6094 25.3281C29.6094 24.1719 30.5 21.8125 30.5 19.5781V19.1406H28.0938V17.7344H30.5V15.7656H32.1406V17.7344H34.5V19.1406H32.1406V19.5781ZM39.9844 15.2656V29.3906H38.3281V15.2656H39.9844ZM37.1094 15.5312V28.7031H35.4688V22.125H33.625V20.6875H35.4688V15.5312H37.1094ZM50.7812 19.2812C50.7812 21.5938 52.1406 24.0312 54.4219 24.9844L53.4688 26.3594C51.7969 25.6406 50.5781 24.1562 49.9375 22.3594C49.2812 24.2969 48.0469 25.9219 46.3906 26.7031L45.3906 25.3438C47.625 24.3125 49.0156 21.6875 49.0156 19.2812V18.0938H45.9062V16.6562H53.875V18.0938H50.7812V19.2812ZM57.2031 15.2656V29.3906H55.4531V15.2656H57.2031ZM72.1719 23.2188V24.6562H66.5469V29.3906H64.8281V24.6562H59.2656V23.2188H72.1719ZM65.6875 15.7656C68.6875 15.7812 70.7812 17 70.7812 18.9375C70.7812 20.8594 68.6875 22.0625 65.6875 22.0625C62.6719 22.0625 60.6094 20.8594 60.625 18.9375C60.6094 17 62.6719 15.7812 65.6875 15.7656ZM65.6875 17.1719C63.6875 17.1719 62.3906 17.8281 62.4062 18.9375C62.3906 20.0312 63.6875 20.6875 65.6875 20.6875C67.6875 20.6875 68.9844 20.0312 68.9844 18.9375C68.9844 17.8281 67.6875 17.1719 65.6875 17.1719ZM84.9062 15.2656V29.3906H83.1562V15.2656H84.9062ZM80.6875 16.7656C80.6875 20.9688 79.0625 24.5469 74.1094 26.8906L73.2031 25.5C76.8984 23.7422 78.6172 21.3516 78.9219 18.1406H73.9219V16.7656H80.6875Z" fill="#6146BB"/>
<path d="M110.961 20.2635C112.305 21.0313 112.305 22.9687 110.961 23.7365L100 30L100 14L110.961 20.2635Z" fill="#DDDDF7"/>
</svg>
