<svg width="114" height="44" viewBox="0 0 114 44" fill="none" xmlns="http://www.w3.org/2000/svg">
<rect width="100" height="44" rx="10" fill="#DDDDF7"/>
<path d="M35.0547 19.2812C35.0547 21.5938 36.4141 24.0312 38.6953 24.9844L37.7422 26.3594C36.0703 25.6406 34.8516 24.1562 34.2109 22.3594C33.5547 24.2969 32.3203 25.9219 30.6641 26.7031L29.6641 25.3438C31.8984 24.3125 33.2891 21.6875 33.2891 19.2812V18.0938H30.1797V16.6562H38.1484V18.0938H35.0547V19.2812ZM41.4766 15.2656V29.3906H39.7266V15.2656H41.4766ZM56.4453 23.2188V24.6562H50.8203V29.3906H49.1016V24.6562H43.5391V23.2188H56.4453ZM49.9609 15.7656C52.9609 15.7812 55.0547 17 55.0547 18.9375C55.0547 20.8594 52.9609 22.0625 49.9609 22.0625C46.9453 22.0625 44.8828 20.8594 44.8984 18.9375C44.8828 17 46.9453 15.7812 49.9609 15.7656ZM49.9609 17.1719C47.9609 17.1719 46.6641 17.8281 46.6797 18.9375C46.6641 20.0312 47.9609 20.6875 49.9609 20.6875C51.9609 20.6875 53.2578 20.0312 53.2578 18.9375C53.2578 17.8281 51.9609 17.1719 49.9609 17.1719ZM69.1797 15.2656V29.3906H67.4297V15.2656H69.1797ZM64.9609 16.7656C64.9609 20.9688 63.3359 24.5469 58.3828 26.8906L57.4766 25.5C61.1719 23.7422 62.8906 21.3516 63.1953 18.1406H58.1953V16.7656H64.9609Z" fill="#6146BB"/>
<path d="M110.961 20.2635C112.305 21.0313 112.305 22.9687 110.961 23.7365L100 30L100 14L110.961 20.2635Z" fill="#DDDDF7"/>
</svg>
