<svg width="40" height="40" viewBox="0 0 40 40" fill="none" xmlns="http://www.w3.org/2000/svg">
<rect width="40" height="40" rx="20" fill="#F3F3F6"/>
<path d="M26.3985 27.9998H16.0404L12.2738 24.1783C12.0984 23.9993 12 23.7572 12 23.5048C12 23.2524 12.0984 23.0102 12.2738 22.8312L21.6902 13.2776C21.8667 13.0996 22.1053 12.9998 22.3541 12.9998C22.6029 12.9998 22.8415 13.0996 23.018 13.2776L27.7262 18.0544C27.9016 18.2334 28 18.4755 28 18.7279C28 18.9803 27.9016 19.2225 27.7262 19.4015L24.5 22.6747M19.2514 27.9998L24.5 22.6747M18.2598 16.758L24.5 22.6747" stroke="#66676E" stroke-width="1.6" stroke-linecap="round" stroke-linejoin="round"/>
</svg>
