<svg width="40" height="40" viewBox="0 0 40 40" fill="none" xmlns="http://www.w3.org/2000/svg">
<rect width="40" height="40" rx="20" fill="#F3F3F6"/>
<path d="M12 14.5H28M18 24.5V18.5M22 24.5V18.5M24 28.5H16C14.8954 28.5 14 27.6046 14 26.5V15.5C14 14.9477 14.4477 14.5 15 14.5H25C25.5523 14.5 26 14.9477 26 15.5V26.5C26 27.6046 25.1046 28.5 24 28.5ZM18 14.5H22C22.5523 14.5 23 14.0523 23 13.5V12.5C23 11.9477 22.5523 11.5 22 11.5H18C17.4477 11.5 17 11.9477 17 12.5V13.5C17 14.0523 17.4477 14.5 18 14.5Z" stroke="#66676E" stroke-width="1.6" stroke-linecap="round" stroke-linejoin="round"/>
</svg>
