<svg width="72" height="72" viewBox="0 0 72 72" fill="none" xmlns="http://www.w3.org/2000/svg">
<path d="M67.755 72C66.6681 72 65.5834 71.586 64.7533 70.7559L45.6887 51.6896C44.0308 50.0316 44.0308 47.3439 45.6887 45.6859C47.3466 44.0279 50.034 44.0279 51.6919 45.6859L70.7566 64.7522C72.4144 66.4102 72.4144 69.0979 70.7566 70.7559C69.9266 71.586 68.8418 72 67.755 72Z" fill="#3F4045"/>
<path opacity="0.8" fill-rule="evenodd" clip-rule="evenodd" d="M29.326 3.18652C43.7417 3.18652 55.4679 14.9159 55.4679 29.3307C55.4679 36.5379 52.5345 43.0743 47.801 47.8085L47.8022 47.8097C43.0684 52.5439 36.5324 55.4757 29.3256 55.4757C14.9119 55.4757 3.18359 43.7463 3.18359 29.3315C3.18359 22.124 6.11514 15.5874 10.8489 10.8532L30.879 30.8851L10.8494 10.8525C15.5831 6.11833 22.1192 3.18652 29.326 3.18652Z" fill="#DDDDF7"/>
<path fill-rule="evenodd" clip-rule="evenodd" d="M21.9501 16.4022C22.9475 17.5867 22.7959 19.3555 21.6115 20.353C19.7061 21.9577 16.9342 26.1301 18.5051 31.8906C18.9126 33.3846 18.0318 34.926 16.538 35.3335C15.0441 35.7409 13.5028 34.8601 13.0954 33.3661C10.8213 25.0269 14.8317 18.7314 17.9996 16.0635C19.184 15.066 20.9527 15.2177 21.9501 16.4022Z" fill="white"/>
<path d="M29.324 58.6552C13.1548 58.6552 0 45.4992 0 29.3286C0 13.1581 13.1548 0 29.324 0C45.4931 0 58.6501 13.156 58.6501 29.3286C58.6501 45.5013 45.4953 58.6552 29.324 58.6552ZM29.324 6.36887C16.6659 6.36887 6.36832 16.6695 6.36832 29.3286C6.36832 41.9878 16.668 52.2863 29.324 52.2863C41.98 52.2863 52.2818 41.9857 52.2818 29.3286C52.2818 16.6716 41.9821 6.36887 29.324 6.36887Z" fill="#6146BB"/>
</svg>
