<svg width="40" height="40" viewBox="0 0 40 40" fill="none" xmlns="http://www.w3.org/2000/svg">
<rect x="0.3" y="0.3" width="39.4" height="39.4" rx="19.7" fill="#FF8888"/>
<rect x="0.3" y="0.3" width="39.4" height="39.4" rx="19.7" stroke="white" stroke-width="0.6"/>
<path fill-rule="evenodd" clip-rule="evenodd" d="M16.419 13.5916C15.6412 12.8073 14.3748 12.8022 13.5906 13.58C12.8064 14.3579 12.8012 15.6242 13.579 16.4084L17.183 20.042L13.6624 23.5916C12.8846 24.3758 12.8898 25.6421 13.674 26.42C14.4582 27.1978 15.7245 27.1927 16.5024 26.4084L20 22.8821L23.4975 26.4084C24.2754 27.1927 25.5417 27.1978 26.3259 26.42C27.1102 25.6421 27.1153 24.3758 26.3375 23.5916L22.8169 20.042L26.4209 16.4084C27.1987 15.6242 27.1935 14.3579 26.4093 13.58C25.6251 12.8022 24.3587 12.8073 23.5809 13.5916L20 17.202L16.419 13.5916Z" fill="white"/>
</svg>
