<svg width="22" height="22" viewBox="0 0 22 22" fill="none" xmlns="http://www.w3.org/2000/svg">
<path d="M11.1336 4.73261C11.0569 4.66177 10.9436 4.66176 10.8669 4.73258C10.1441 5.40006 6.65385 8.62038 4.60681 10.4543C4.53388 10.5223 4.47512 10.606 4.43434 10.7C4.39357 10.7939 4.37168 10.896 4.37012 10.9996C4.37012 11.1879 4.43997 11.3685 4.56431 11.5016C4.68865 11.6348 4.85729 11.7096 5.03313 11.7096H6.15915C6.26961 11.7096 6.35915 11.7991 6.35915 11.9096V16.6798C6.35915 16.8681 6.429 17.0487 6.55334 17.1818C6.67768 17.315 6.84632 17.3898 7.02216 17.3898H9.01119C9.18704 17.3898 9.35568 17.315 9.48001 17.1818C9.60435 17.0487 9.67421 16.8681 9.67421 16.6798V14.0397C9.67421 13.9292 9.76375 13.8397 9.87421 13.8397H12.1263C12.2367 13.8397 12.3263 13.9292 12.3263 14.0397V16.6798C12.3263 16.8681 12.3961 17.0487 12.5204 17.1818C12.6448 17.315 12.8134 17.3898 12.9893 17.3898H14.9783C15.1541 17.3898 15.3228 17.315 15.4471 17.1818C15.5715 17.0487 15.6413 16.8681 15.6413 16.6798V11.9096C15.6413 11.7991 15.7308 11.7096 15.8413 11.7096H16.9673C17.1432 11.7096 17.3118 11.6348 17.4361 11.5016C17.5605 11.3685 17.6303 11.1879 17.6303 10.9996C17.6294 10.894 17.6061 10.7901 17.5621 10.6956C17.5181 10.6011 17.4546 10.5186 17.3764 10.4543C15.3436 8.62041 11.856 5.40016 11.1336 4.73261Z" fill="#6146BB"/>
</svg>
