<svg width="22" height="22" viewBox="0 0 22 22" fill="none" xmlns="http://www.w3.org/2000/svg">
<path d="M11.0002 6.33447C12.064 6.33447 12.9263 5.47216 12.9263 4.40845C12.9263 3.34473 12.064 2.48242 11.0002 2.48242C9.93653 2.48242 9.07422 3.34473 9.07422 4.40845C9.07422 5.47216 9.93653 6.33447 11.0002 6.33447Z" fill="#B1B2B7"/>
<path d="M13.2999 6.85938H10.9998H8.69972C7.90561 6.85938 7.26172 7.34569 7.26172 7.94587V11.8706C7.26172 12.4705 7.90561 12.9573 8.69924 12.9573H9.04824V18.6797C9.04824 19.1422 9.54433 19.5174 10.1569 19.5174H11.842C12.4543 19.5174 12.9506 19.1422 12.9506 18.6797V12.9573H13.2999C14.0935 12.9573 14.7377 12.4707 14.7377 11.8706V7.94587C14.7379 7.34569 14.0938 6.85938 13.2999 6.85938Z" fill="#B1B2B7"/>
</svg>
