<svg width="48" height="48" viewBox="0 0 48 48" fill="none" xmlns="http://www.w3.org/2000/svg" transform="rotate(180)">
  <rect width="48" height="48" rx="24" transform="matrix(-1 -8.74228e-08 -8.74228e-08 1 48 0)" fill="#9386E0"/>
  <path fill-rule="evenodd" clip-rule="evenodd" d="M30 23.5C30 23.7837 29.8873 24.0673 29.662 24.2839L21.9699 31.6752C21.5192 32.1083 20.7887 32.1083 20.338 31.6752C19.8873 31.2421 19.8873 30.5405 20.338 30.1074L27.2147 23.5L20.338 16.8926C19.8873 16.4595 19.8873 15.7579 20.338 15.3248C20.7887 14.8917 21.5192 14.8917 21.97 15.3248L29.662 22.7161C29.8873 22.9327 30 23.2163 30 23.5Z" fill="white"/>
</svg>