<svg width="22" height="22" viewBox="0 0 22 22" fill="none" xmlns="http://www.w3.org/2000/svg">
<path d="M5.96458 16.0894C6.14778 16.3336 6.48033 16.479 6.84676 16.479H9.98193V18.7695C9.98193 19.2006 10.4366 19.5486 10.9998 19.5486C11.5631 19.5486 12.0177 19.2006 12.0177 18.7695V16.479H15.1529C15.5193 16.479 15.8519 16.3336 16.0351 16.0894C16.2183 15.8505 16.2183 15.5545 16.0351 15.3103L14.8407 13.7262H15.1529C15.5193 13.7262 15.8519 13.5807 16.0351 13.3366C16.2183 13.0977 16.2183 12.8016 16.0351 12.5575L14.4879 10.5111H15.1529C15.5193 10.5111 15.8519 10.3605 16.0351 10.1215C16.2183 9.87743 16.2183 9.58137 16.0351 9.34243L11.882 3.83681C11.6988 3.59788 11.3663 3.44727 10.9998 3.44727C10.6334 3.44727 10.3008 3.59788 10.1177 3.83681L5.96458 9.34243C5.78134 9.58137 5.78134 9.87743 5.96458 10.1215C6.14777 10.3605 6.48032 10.5111 6.84676 10.5111H7.51178L5.96458 12.5575C5.78134 12.8016 5.78134 13.0977 5.96458 13.3366C6.14777 13.5807 6.48032 13.7262 6.84676 13.7262H7.15893L5.96458 15.3103C5.78135 15.5545 5.78135 15.8505 5.96458 16.0894Z" fill="#B1B2B7"/>
</svg>
