<svg width="22" height="22" viewBox="0 0 22 22" fill="none" xmlns="http://www.w3.org/2000/svg">
<path fill-rule="evenodd" clip-rule="evenodd" d="M11.0002 6.33447C12.0639 6.33447 12.9262 5.47216 12.9262 4.40845C12.9262 3.34473 12.0639 2.48242 11.0002 2.48242C9.93644 2.48242 9.07413 3.34473 9.07413 4.40845C9.07413 5.47216 9.93644 6.33447 11.0002 6.33447ZM6.50947 14.7239L8.78393 7.55676C8.91574 7.1414 9.30135 6.85922 9.73712 6.85924L12.2991 6.85934C12.7324 6.85936 13.1164 7.13841 13.2502 7.55052L15.5774 14.7175C15.7871 15.3636 15.3055 16.0264 14.6262 16.0264H12.9262V18.5176C12.9262 19.0699 12.4785 19.5176 11.9262 19.5176H10.0595C9.50723 19.5176 9.05951 19.0699 9.05951 18.5176V16.0264H7.46263C6.78614 16.0264 6.30485 15.3687 6.50947 14.7239Z" fill="#B1B2B7"/>
</svg>
