<svg width="396" height="380" viewBox="0 0 396 380" fill="none" xmlns="http://www.w3.org/2000/svg">
<circle cx="198" cy="142.5" r="40" fill="#DDDDF7"/>
<path d="M178.004 130.964C177.915 129.08 179.298 127.5 181.035 127.5H200.909C202.525 127.5 203.858 128.875 203.94 130.627L204.996 153.036C205.085 154.92 203.702 156.5 201.965 156.5H182.091C180.475 156.5 179.142 155.125 179.06 153.373L178.004 130.964Z" fill="#9386E0"/>
<g filter="url(#filter0_d_2359_67998)">
<path d="M178.004 137.041C177.916 135.283 179.307 133.809 181.054 133.809H214.946C216.693 133.809 218.084 135.283 217.996 137.041L216.915 158.579C216.833 160.216 215.491 161.501 213.864 161.501H182.136C180.509 161.501 179.167 160.216 179.085 158.579L178.004 137.041Z" fill="white"/>
</g>
<path d="M114.984 220.064C114.984 225.178 111.762 228.723 106.025 230.312L104.951 228.186C109.162 227.047 111.59 224.898 112.062 222.256H106.004V220.064H114.984ZM121.322 218.947V229.883H118.594V225.822H115.113V223.588H118.594V218.947H121.322ZM121.322 230.656V238.24H108.367V230.656H121.322ZM111.053 232.805V236.092H118.615V232.805H111.053ZM131.055 223.352C131.033 226.854 132.537 230.398 135.674 231.902L134.02 234.094C131.925 233.062 130.518 231.129 129.701 228.766C128.853 231.301 127.338 233.374 125.125 234.459L123.428 232.246C126.736 230.721 128.305 226.982 128.305 223.352V220.43H131.055V223.352ZM139.283 218.926V226.467H142.162V228.787H139.283V238.477H136.533V218.926H139.283ZM164.42 218.926V228.766H161.691V227.262H157.223V225.178H161.691V223.459H157.438C156.224 226.402 153.431 228.282 149.102 229.217L148.178 226.982C152.657 226.091 154.73 224.243 155.096 221.891H149.273V219.678H158.125C158.125 220.269 158.082 220.838 157.996 221.375H161.691V218.926H164.42ZM164.42 229.475V234.824H154.193V236.113H164.85V238.283H151.443V232.805H161.67V231.623H151.422V229.475H164.42ZM177.955 220.881V222.449C177.934 224.297 177.934 226.703 177.418 229.947L174.711 229.732C175.151 226.896 175.194 224.802 175.227 223.072H167.814V220.881H177.955ZM173.078 226.488V232.16C175.001 232.085 176.956 231.945 178.75 231.709L178.922 233.75C174.904 234.438 170.457 234.502 167.041 234.48L166.783 232.289C167.879 232.278 169.104 232.278 170.371 232.246V226.488H173.078ZM182.445 218.926V226.789H185.109V229.066H182.445V238.477H179.674V218.926H182.445ZM201.395 218.926V226.424H204.166V228.68H201.395V238.434H198.645V218.926H201.395ZM196.174 220.924C196.152 226.768 193.875 231.838 187.301 235.061L185.754 232.955C190.384 230.635 192.865 227.52 193.381 223.158H186.871V220.924H196.174ZM214.758 230.355V232.311H216.863V230.355H219.398V236.285C221.568 235.318 222.492 233.492 222.492 231.709V230.205H225.242V231.709C225.221 233.707 226.188 235.598 228.637 236.393L227.219 238.434C225.532 237.854 224.447 236.736 223.824 235.34C223.169 236.693 222.095 237.821 220.516 238.434L219.398 236.736V238.262H212.223V230.355H214.758ZM214.758 236.178H216.863V234.33H214.758V236.178ZM215.51 219.656C218.002 219.656 219.989 221.042 220.537 223.115H223.803V218.926H226.531V229.281H223.803V225.371H220.537C220.011 227.487 218.013 228.895 215.51 228.895C212.502 228.895 210.289 226.982 210.311 224.254C210.289 221.568 212.502 219.656 215.51 219.656ZM215.51 221.912C213.984 221.912 212.889 222.814 212.91 224.254C212.889 225.736 213.984 226.639 215.51 226.66C216.992 226.639 218.066 225.736 218.066 224.254C218.066 222.814 216.992 221.912 215.51 221.912ZM233.857 230.656V232.311H241.914V230.656H244.643V238.262H231.15V230.656H233.857ZM233.857 236.113H241.914V234.395H233.857V236.113ZM246.898 227.455V229.668H229.066V227.455H246.898ZM239.4 219.785C239.4 221.74 241.656 223.953 246.018 224.447L245.051 226.596C241.678 226.166 239.239 224.77 237.982 222.879C236.726 224.77 234.276 226.166 230.936 226.596L229.947 224.447C234.309 223.932 236.564 221.783 236.586 219.785V219.119H239.4V219.785ZM264.516 218.926V238.477H261.787V218.926H264.516ZM251.84 220.795V231.301C254.482 231.269 257.318 231.021 260.197 230.463L260.541 232.719C257.104 233.428 253.881 233.664 250.852 233.643H249.133V220.795H251.84ZM282.52 218.926V226.188H285.398V228.422H282.52V238.52H279.77V218.926H282.52ZM277.041 220.73V222.943H270.596V231.516C273.432 231.483 275.773 231.354 278.373 230.893L278.674 233.191C275.645 233.707 272.98 233.793 269.521 233.771H267.867V220.73H277.041ZM288.643 236.693C287.633 236.693 286.816 235.877 286.838 234.889C286.816 233.9 287.633 233.105 288.643 233.105C289.588 233.105 290.426 233.9 290.426 234.889C290.426 235.877 289.588 236.693 288.643 236.693Z" fill="#4D4F56"/>
<path d="M86.1719 262.953C86.1719 265.297 87.7031 267.719 89.8594 268.641L89.0469 269.797C87.3984 269.07 86.0859 267.531 85.4375 265.656C84.7891 267.656 83.4688 269.359 81.8438 270.156L80.9844 268.984C83.0938 268 84.6562 265.359 84.6719 262.953V261.469H81.4688V260.234H89.3594V261.469H86.1719V262.953ZM92.6094 258.828V272.828H91.125V258.828H92.6094ZM106.031 259.531V260.594C106.031 261.695 106.031 262.945 105.672 264.641H107.656V265.859H94.8438V264.641H104.172C104.547 263.008 104.562 261.812 104.562 260.75H96.4531V259.531H106.031ZM106.047 267.641V272.656H96.4062V267.641H106.047ZM97.8594 268.812V271.453H104.578V268.812H97.8594ZM123.484 258.828V264.25H125.734V265.5H123.484V272.828H122V258.828H123.484ZM114.578 260V263.594H118.281V260H119.75V269.5H113.109V260H114.578ZM114.578 268.281H118.281V264.766H114.578V268.281ZM139.219 269.906V271.156H126.406V269.906H132.047V267.453H127.969V263H136.188V261.031H127.938V259.812H137.656V264.188H129.438V266.234H137.984V267.453H133.516V269.906H139.219ZM144.781 271.5V260.188H146.5V265.094H152.125V260.188H153.844V271.5H152.125V266.562H146.5V271.5H144.781ZM155.594 261.672V260.188H164.359V261.672H160.844V271.5H159.125V261.672H155.594ZM166.109 271.5V260.188H170.141C172.766 260.188 174.062 261.766 174.062 263.859C174.062 265.938 172.766 267.531 170.141 267.531H167.828V271.5H166.109ZM167.828 266.062H169.969C171.641 266.062 172.328 265.125 172.328 263.859C172.328 262.578 171.641 261.656 169.969 261.656H167.828V266.062ZM186.375 259.703C186.375 263.266 183.938 265.797 179.875 266.938L179.266 265.781C182.492 264.875 184.5 263.125 184.797 260.922H180V259.703H186.375ZM190.812 258.844V266.766H189.328V263.578H186.438V262.344H189.328V258.844H190.812ZM190.812 267.344V272.641H181.656V267.344H190.812ZM183.109 268.531V271.453H189.344V268.531H183.109ZM197.828 262.391C197.812 264.875 199.25 267.406 201.344 268.422L200.422 269.609C198.898 268.82 197.719 267.25 197.109 265.375C196.477 267.375 195.25 269.047 193.656 269.875L192.734 268.672C194.891 267.641 196.344 264.953 196.344 262.391V260H197.828V262.391ZM203.875 258.828V264.406H206.125V265.672H203.875V272.828H202.391V258.828H203.875ZM219.594 265.25V266.391H206.781V265.25H219.594ZM218.016 267.375V270.453H209.797V271.609H218.453V272.656H208.312V269.469H216.547V268.438H208.297V267.375H218.016ZM217.984 259.188V262.219H209.891V263.281H218.219V264.328H208.422V261.234H216.5V260.234H208.391V259.188H217.984ZM229.672 262.391C229.656 264.953 231.203 267.516 233.375 268.484L232.484 269.656C230.875 268.891 229.602 267.32 228.953 265.406C228.297 267.453 227.008 269.148 225.328 269.969L224.422 268.719C226.625 267.734 228.172 265.062 228.172 262.391V260H229.672V262.391ZM236.125 258.828V272.859H234.641V258.828H236.125ZM243.25 261.344C243.25 263.125 244.484 264.828 246.625 265.547L245.875 266.703C244.289 266.156 243.125 265.062 242.516 263.688C241.906 265.203 240.695 266.391 239.047 266.969L238.25 265.812C240.438 265.062 241.75 263.266 241.766 261.328V260.953H238.688V259.75H246.266V260.953H243.25V261.344ZM249.359 258.828V262.422H251.391V263.672H249.359V267.266H247.875V258.828H249.359ZM249.359 267.953V272.828H247.875V269.156H240.109V267.953H249.359ZM259.109 261.141V262.344H252.156V261.141H254.906V259.234H256.375V261.141H259.109ZM255.641 263.188C257.422 263.188 258.672 264.516 258.688 266.406C258.672 268.312 257.422 269.656 255.641 269.656C253.891 269.656 252.594 268.312 252.609 266.406C252.594 264.516 253.891 263.188 255.641 263.188ZM255.641 264.422C254.625 264.422 253.922 265.25 253.922 266.406C253.922 267.594 254.625 268.391 255.641 268.391C256.641 268.391 257.375 267.594 257.375 266.406C257.375 265.25 256.641 264.422 255.641 264.422ZM264.172 258.828V272.828H262.766V265.875H261.156V272.172H259.75V259.141H261.156V264.656H262.766V258.828H264.172ZM282.734 269.859V271.094H269.922V269.859H275.562V266.984H271.391V259.781H272.875V262.188H279.75V259.781H281.219V266.984H277.031V269.859H282.734ZM272.875 265.781H279.75V263.391H272.875V265.781ZM288.016 262.656C288.016 264.891 288.953 267.281 290.828 268.422L290 269.562C288.688 268.773 287.797 267.375 287.328 265.75C286.805 267.531 285.844 269.047 284.484 269.875L283.562 268.766C285.547 267.578 286.578 265.109 286.578 262.719V260.109H288.016V262.656ZM295.797 258.828V272.828H294.375V258.828H295.797ZM292.891 259.094V272.141H291.484V264.984H289.312V263.75H291.484V259.094H292.891ZM310.391 269.844V271.078H297.578V269.844H300.641V266.188C299.492 265.555 298.797 264.547 298.797 263.297C298.797 261.094 300.953 259.641 303.953 259.641C306.969 259.641 309.125 261.094 309.125 263.297C309.125 264.531 308.453 265.523 307.328 266.156V269.844H310.391ZM303.953 260.828C301.75 260.828 300.234 261.781 300.234 263.297C300.234 264.797 301.75 265.781 303.953 265.781C306.141 265.781 307.688 264.797 307.688 263.297C307.688 261.781 306.141 260.828 303.953 260.828ZM302.109 269.844H305.828V266.719C305.258 266.867 304.625 266.938 303.953 266.938C303.297 266.938 302.672 266.867 302.109 266.734V269.844ZM313 271.609C312.391 271.609 311.875 271.109 311.891 270.5C311.875 269.891 312.391 269.391 313 269.391C313.594 269.391 314.109 269.891 314.109 270.5C314.109 271.109 313.594 271.609 313 271.609Z" fill="#97999F"/>
<defs>
<filter id="filter0_d_2359_67998" x="168" y="123.809" width="60" height="47.6914" filterUnits="userSpaceOnUse" color-interpolation-filters="sRGB">
<feFlood flood-opacity="0" result="BackgroundImageFix"/>
<feColorMatrix in="SourceAlpha" type="matrix" values="0 0 0 0 0 0 0 0 0 0 0 0 0 0 0 0 0 0 127 0" result="hardAlpha"/>
<feOffset/>
<feGaussianBlur stdDeviation="5"/>
<feComposite in2="hardAlpha" operator="out"/>
<feColorMatrix type="matrix" values="0 0 0 0 0.152941 0 0 0 0 0.156863 0 0 0 0 0.168627 0 0 0 0.05 0"/>
<feBlend mode="normal" in2="BackgroundImageFix" result="effect1_dropShadow_2359_67998"/>
<feBlend mode="normal" in="SourceGraphic" in2="effect1_dropShadow_2359_67998" result="shape"/>
</filter>
</defs>
</svg>
